<?xml version="1.0" encoding="UTF-8" standalone="no"?>
<!-- This is a Stata 17.0 generated SVG file (http://www.stata.com) -->

<svg version="1.1" width="5.500in" height="4.000in" viewBox="0 0 3960 2880" xmlns="http://www.w3.org/2000/svg" xmlns:xlink="http://www.w3.org/1999/xlink">
	<desc>Stata Graph - Graph</desc>
	<rect x="0" y="0" width="3960" height="2880" style="fill:#EAF2F3;stroke:none"/>
	<rect x="0.00" y="0.00" width="3959.88" height="2880.00" style="fill:#EAF2F3"/>
	<rect x="2.88" y="2.88" width="3954.12" height="2874.24" style="fill:none;stroke:#EAF2F3;stroke-width:5.76"/>
	<rect x="390.80" y="100.86" width="3468.22" height="2518.39" style="fill:#FFFFFF"/>
	<rect x="393.68" y="103.74" width="3462.46" height="2512.63" style="fill:none;stroke:#FFFFFF;stroke-width:5.76"/>
	<line x1="390.80" y1="2518.39" x2="3859.02" y2="2518.39" style="stroke:#EAF2F3;stroke-width:8.64"/>
	<line x1="390.80" y1="1746.17" x2="3859.02" y2="1746.17" style="stroke:#EAF2F3;stroke-width:8.64"/>
	<line x1="390.80" y1="973.82" x2="3859.02" y2="973.82" style="stroke:#EAF2F3;stroke-width:8.64"/>
	<line x1="390.80" y1="201.60" x2="3859.02" y2="201.60" style="stroke:#EAF2F3;stroke-width:8.64"/>
	<rect x="683.72" y="935.21" width="960.80" height="695.13" style="fill:#8DA3B7"/>
	<rect x="688.04" y="939.53" width="952.16" height="686.49" style="fill:none;stroke:#1A476F;stroke-width:8.64"/>
	<line x1="683.72" y1="1205.61" x2="1644.51" y2="1205.61" style="stroke:#1A476F;stroke-width:8.64"/>
	<line x1="1164.12" y1="1630.33" x2="1164.12" y2="2248.11" style="stroke:#1A476F;stroke-width:8.64"/>
	<line x1="1164.12" y1="935.21" x2="1164.12" y2="433.26" style="stroke:#1A476F;stroke-width:8.64"/>
	<line x1="842.24" y1="2248.11" x2="1485.99" y2="2248.11" style="stroke:#1A476F;stroke-width:8.64"/>
	<line x1="842.24" y1="433.26" x2="1485.99" y2="433.26" style="stroke:#1A476F;stroke-width:8.64"/>
	<rect x="2605.31" y="1244.22" width="960.80" height="463.33" style="fill:#8DA3B7"/>
	<rect x="2609.63" y="1248.54" width="952.16" height="454.69" style="fill:none;stroke:#1A476F;stroke-width:8.64"/>
	<line x1="2605.31" y1="1437.28" x2="3566.10" y2="1437.28" style="stroke:#1A476F;stroke-width:8.64"/>
	<line x1="3085.71" y1="1707.56" x2="3085.71" y2="2402.56" style="stroke:#1A476F;stroke-width:8.64"/>
	<line x1="3085.71" y1="1244.22" x2="3085.71" y2="549.10" style="stroke:#1A476F;stroke-width:8.64"/>
	<line x1="2763.83" y1="2402.56" x2="3407.58" y2="2402.56" style="stroke:#1A476F;stroke-width:8.64"/>
	<line x1="2763.83" y1="549.10" x2="3407.58" y2="549.10" style="stroke:#1A476F;stroke-width:8.64"/>
	<circle cx="3085.71" cy="510.48" r="26.35" style="fill:#1A476F"/>
	<circle cx="3085.71" cy="510.48" r="22.03" style="fill:none;stroke:#1A476F;stroke-width:8.64"/>
	<line x1="390.80" y1="2619.25" x2="390.80" y2="100.86" style="stroke:#000000;stroke-width:5.76"/>
	<line x1="390.80" y1="2518.39" x2="350.83" y2="2518.39" style="stroke:#000000;stroke-width:5.76"/>
	<text x="300.72" y="2518.39" style="font-family:'Helvetica';font-size:99.99px;fill:#000000" transform="rotate(-90 300.72,2518.39)" text-anchor="middle">20</text>
	<line x1="390.80" y1="1746.17" x2="350.83" y2="1746.17" style="stroke:#000000;stroke-width:5.76"/>
	<text x="300.72" y="1746.17" style="font-family:'Helvetica';font-size:99.99px;fill:#000000" transform="rotate(-90 300.72,1746.17)" text-anchor="middle">40</text>
	<line x1="390.80" y1="973.82" x2="350.83" y2="973.82" style="stroke:#000000;stroke-width:5.76"/>
	<text x="300.72" y="973.82" style="font-family:'Helvetica';font-size:99.99px;fill:#000000" transform="rotate(-90 300.72,973.82)" text-anchor="middle">60</text>
	<line x1="390.80" y1="201.60" x2="350.83" y2="201.60" style="stroke:#000000;stroke-width:5.76"/>
	<text x="300.72" y="201.60" style="font-family:'Helvetica';font-size:99.99px;fill:#000000" transform="rotate(-90 300.72,201.60)" text-anchor="middle">80</text>
	<text x="190.71" y="1360.06" style="font-family:'Helvetica';font-size:99.99px;fill:#000000" transform="rotate(-90 190.71,1360.06)" text-anchor="middle">age</text>
	<line x1="390.80" y1="2619.25" x2="3859.02" y2="2619.25" style="stroke:#000000;stroke-width:5.76"/>
	<text x="1164.12" y="2729.16" style="font-family:'Helvetica';font-size:99.99px;fill:#000000" text-anchor="middle">female</text>
	<text x="3085.71" y="2729.16" style="font-family:'Helvetica';font-size:99.99px;fill:#000000" text-anchor="middle">male</text>
</svg>
